<mxfile host="app.diagrams.net" agent="Mozilla/5.0 (Windows NT 10.0; Win64; x64) AppleWebKit/537.36 (KHTML, like Gecko) Chrome/129.0.0.0 Safari/537.36" version="24.7.17">
  <diagram name="Página-1" id="JIDjbwsY1mC47pX43iYv">
    <mxGraphModel dx="1434" dy="780" grid="1" gridSize="10" guides="1" tooltips="1" connect="1" arrows="1" fold="1" page="1" pageScale="1" pageWidth="827" pageHeight="1169" math="0" shadow="0">
      <root>
        <mxCell id="0" />
        <mxCell id="1" parent="0" />
        <mxCell id="HllSV-0J50wZbuKiRXix-1" value="" style="rounded=0;whiteSpace=wrap;html=1;" vertex="1" parent="1">
          <mxGeometry y="200" width="830" height="470" as="geometry" />
        </mxCell>
        <mxCell id="HllSV-0J50wZbuKiRXix-2" value="System Context" style="text;html=1;align=center;verticalAlign=middle;whiteSpace=wrap;rounded=0;fontStyle=1;fontSize=31;fontFamily=Comic Sans MS;" vertex="1" parent="1">
          <mxGeometry x="287" y="210" width="256" height="30" as="geometry" />
        </mxCell>
        <mxCell id="HllSV-0J50wZbuKiRXix-4" value="Diagrama que apresenta uma visão geral do sistema, destacando a interação entre o usuário, a aplicação e o sistema de pagamento externo." style="text;html=1;align=center;verticalAlign=middle;whiteSpace=wrap;rounded=0;fontFamily=Comic Sans MS;fontSize=17;" vertex="1" parent="1">
          <mxGeometry x="30" y="220" width="770" height="120" as="geometry" />
        </mxCell>
        <mxCell id="HllSV-0J50wZbuKiRXix-11" style="edgeStyle=orthogonalEdgeStyle;rounded=0;orthogonalLoop=1;jettySize=auto;html=1;strokeWidth=2;jumpStyle=none;" edge="1" parent="1" source="HllSV-0J50wZbuKiRXix-12" target="HllSV-0J50wZbuKiRXix-10">
          <mxGeometry relative="1" as="geometry" />
        </mxCell>
        <mxCell id="HllSV-0J50wZbuKiRXix-5" value="User" style="sketch=0;outlineConnect=0;fontColor=none;gradientColor=none;strokeColor=#232F3E;fillColor=#ffffff;dashed=0;verticalLabelPosition=bottom;verticalAlign=top;align=center;fontSize=12;fontStyle=0;aspect=fixed;shape=mxgraph.aws4.resourceIcon;resIcon=mxgraph.aws4.user;html=1;noLabel=1;" vertex="1" parent="1">
          <mxGeometry x="167" y="320" width="120" height="120" as="geometry" />
        </mxCell>
        <mxCell id="HllSV-0J50wZbuKiRXix-8" value="&lt;font style=&quot;font-size: 16px;&quot;&gt;&lt;b&gt;Usuário&lt;/b&gt;&lt;/font&gt;&lt;div&gt;Pode ser um cliente, atendente ou gerente&lt;/div&gt;" style="text;html=1;align=center;verticalAlign=middle;whiteSpace=wrap;rounded=0;" vertex="1" parent="1">
          <mxGeometry x="167" y="430" width="120" height="60" as="geometry" />
        </mxCell>
        <mxCell id="HllSV-0J50wZbuKiRXix-19" style="edgeStyle=orthogonalEdgeStyle;rounded=0;orthogonalLoop=1;jettySize=auto;html=1;entryX=0.5;entryY=0;entryDx=0;entryDy=0;strokeWidth=2;jumpSize=6;exitX=0.499;exitY=1.093;exitDx=0;exitDy=0;exitPerimeter=0;" edge="1" parent="1" source="HllSV-0J50wZbuKiRXix-20" target="HllSV-0J50wZbuKiRXix-16">
          <mxGeometry relative="1" as="geometry" />
        </mxCell>
        <mxCell id="HllSV-0J50wZbuKiRXix-10" value="" style="rounded=1;whiteSpace=wrap;html=1;" vertex="1" parent="1">
          <mxGeometry x="500" y="330" width="210" height="100" as="geometry" />
        </mxCell>
        <mxCell id="HllSV-0J50wZbuKiRXix-13" value="" style="edgeStyle=orthogonalEdgeStyle;rounded=0;orthogonalLoop=1;jettySize=auto;html=1;strokeWidth=2;jumpStyle=none;endArrow=none;endFill=0;" edge="1" parent="1" source="HllSV-0J50wZbuKiRXix-5" target="HllSV-0J50wZbuKiRXix-12">
          <mxGeometry relative="1" as="geometry">
            <mxPoint x="287" y="380" as="sourcePoint" />
            <mxPoint x="500" y="380" as="targetPoint" />
          </mxGeometry>
        </mxCell>
        <mxCell id="HllSV-0J50wZbuKiRXix-12" value="&lt;font face=&quot;Comic Sans MS&quot; style=&quot;font-size: 16px;&quot;&gt;&lt;b&gt;Utiliza&lt;/b&gt;&lt;/font&gt;" style="text;html=1;align=center;verticalAlign=middle;whiteSpace=wrap;rounded=0;" vertex="1" parent="1">
          <mxGeometry x="360" y="365" width="60" height="30" as="geometry" />
        </mxCell>
        <mxCell id="HllSV-0J50wZbuKiRXix-14" value="&lt;font face=&quot;Comic Sans MS&quot; style=&quot;font-size: 14px;&quot;&gt;&lt;b&gt;FastFood API&lt;/b&gt;&lt;/font&gt;" style="text;html=1;align=center;verticalAlign=middle;whiteSpace=wrap;rounded=0;" vertex="1" parent="1">
          <mxGeometry x="552.5" y="335" width="105" height="30" as="geometry" />
        </mxCell>
        <mxCell id="HllSV-0J50wZbuKiRXix-15" value="Sistema que entrega automatização no processo de criação e acompanhamento de pedidos." style="text;html=1;align=center;verticalAlign=middle;whiteSpace=wrap;rounded=0;" vertex="1" parent="1">
          <mxGeometry x="500" y="360" width="210" height="70" as="geometry" />
        </mxCell>
        <mxCell id="HllSV-0J50wZbuKiRXix-16" value="" style="rounded=1;whiteSpace=wrap;html=1;" vertex="1" parent="1">
          <mxGeometry x="500" y="530" width="210" height="90" as="geometry" />
        </mxCell>
        <mxCell id="HllSV-0J50wZbuKiRXix-17" value="&lt;font face=&quot;Comic Sans MS&quot; style=&quot;font-size: 14px;&quot;&gt;&lt;b&gt;Gateway de Pagamento&lt;/b&gt;&lt;/font&gt;" style="text;html=1;align=center;verticalAlign=middle;whiteSpace=wrap;rounded=0;" vertex="1" parent="1">
          <mxGeometry x="552.5" y="540" width="105" height="30" as="geometry" />
        </mxCell>
        <mxCell id="HllSV-0J50wZbuKiRXix-18" value="Sistema externo para realizar o pagamento dos pedidos." style="text;html=1;align=center;verticalAlign=middle;whiteSpace=wrap;rounded=0;" vertex="1" parent="1">
          <mxGeometry x="500" y="560" width="210" height="70" as="geometry" />
        </mxCell>
        <mxCell id="HllSV-0J50wZbuKiRXix-21" value="" style="edgeStyle=orthogonalEdgeStyle;rounded=0;orthogonalLoop=1;jettySize=auto;html=1;entryX=0.501;entryY=-0.093;entryDx=0;entryDy=0;strokeWidth=2;endArrow=none;endFill=0;entryPerimeter=0;" edge="1" parent="1" source="HllSV-0J50wZbuKiRXix-10" target="HllSV-0J50wZbuKiRXix-20">
          <mxGeometry relative="1" as="geometry">
            <mxPoint x="605" y="430" as="sourcePoint" />
            <mxPoint x="605" y="485" as="targetPoint" />
          </mxGeometry>
        </mxCell>
        <mxCell id="HllSV-0J50wZbuKiRXix-20" value="&lt;b&gt;&lt;font face=&quot;Comic Sans MS&quot; style=&quot;font-size: 14px;&quot;&gt;Realiza o pagamento no&lt;/font&gt;&lt;/b&gt;" style="text;html=1;align=center;verticalAlign=middle;whiteSpace=wrap;rounded=0;" vertex="1" parent="1">
          <mxGeometry x="536.25" y="460" width="137.5" height="30" as="geometry" />
        </mxCell>
      </root>
    </mxGraphModel>
  </diagram>
</mxfile>
